<?xml version="1.0" encoding="UTF-8" standalone="no"?>
<!-- Created with Inkscape (http://www.inkscape.org/) -->

<svg
   width="438.92892mm"
   height="295.93677mm"
   viewBox="0 0 438.92892 295.93677"
   version="1.1"
   id="svg5"
   xml:space="preserve"
   inkscape:export-filename="Rastergrafik.svg"
   inkscape:export-xdpi="96"
   inkscape:export-ydpi="96"
   xmlns:inkscape="http://www.inkscape.org/namespaces/inkscape"
   xmlns:sodipodi="http://sodipodi.sourceforge.net/DTD/sodipodi-0.dtd"
   xmlns="http://www.w3.org/2000/svg"
   xmlns:svg="http://www.w3.org/2000/svg"><sodipodi:namedview
     id="namedview7"
     pagecolor="#ffffff"
     bordercolor="#999999"
     borderopacity="1"
     inkscape:showpageshadow="0"
     inkscape:pageopacity="0"
     inkscape:pagecheckerboard="0"
     inkscape:deskcolor="#d1d1d1"
     inkscape:document-units="mm"
     showgrid="false" /><defs
     id="defs2" /><g
     inkscape:label="Ebene 1"
     inkscape:groupmode="layer"
     id="layer1"
     transform="translate(-2.1479911,0.38196723)"><path
       style="fill:#000000;stroke-width:0.568204"
       d="M 10.66714,295.32899 C 2.0133626,294.21883 -0.09970688,289.4073 4.5669781,281.4387 10.012335,272.14047 19.915737,262.40774 41.448022,245.19325 c 25.945284,-20.74257 55.413061,-41.16801 99.597598,-69.03557 23.73116,-14.96744 41.55639,-27.13603 77.59277,-52.96954 58.73576,-42.106104 83.932,-58.474511 120.53516,-78.30415 24.7929,-13.431461 45.13014,-23.007063 72.12839,-33.960968 13.13565,-5.3294846 28.73704,-11.30498923 29.51606,-11.30498923 0.14243,0 0.25891,31.30159223 0.25891,69.55909823 v 69.559089 l -10.56893,5.31667 C 326.6632,196.29178 206.9647,244.98076 113.59797,272.96031 c -25.438846,7.62334 -56.712906,15.84846 -73.509259,19.33302 -12.857874,2.66747 -23.628665,3.77878 -29.421571,3.03566 z"
       id="path167" /></g></svg>
