<?xml version="1.0" encoding="UTF-8" standalone="no"?>
<!-- Created with Inkscape (http://www.inkscape.org/) -->

<svg
   width="153.41307mm"
   height="108.96785mm"
   viewBox="0 0 153.41307 108.96785"
   version="1.1"
   id="svg358"
   xml:space="preserve"
   inkscape:export-filename="background-right-bottom-svg.svg"
   inkscape:export-xdpi="96"
   inkscape:export-ydpi="96"
   xmlns:inkscape="http://www.inkscape.org/namespaces/inkscape"
   xmlns:sodipodi="http://sodipodi.sourceforge.net/DTD/sodipodi-0.dtd"
   xmlns="http://www.w3.org/2000/svg"
   xmlns:svg="http://www.w3.org/2000/svg"><sodipodi:namedview
     id="namedview360"
     pagecolor="#ffffff"
     bordercolor="#999999"
     borderopacity="1"
     inkscape:showpageshadow="0"
     inkscape:pageopacity="0"
     inkscape:pagecheckerboard="0"
     inkscape:deskcolor="#d1d1d1"
     inkscape:document-units="mm"
     showgrid="false" /><defs
     id="defs355" /><g
     inkscape:label="Ebene 1"
     inkscape:groupmode="layer"
     id="layer1"
     transform="translate(-19.987011,-66.516075)"><path
       style="fill:#000000;stroke-width:0.280045"
       d="m 25.549233,175.18771 c -2.642643,-0.33453 -4.205058,-1.27361 -4.98435,-2.99582 -0.795899,-1.75891 -0.622439,-3.2677 0.737002,-6.41058 1.547369,-3.57736 3.284612,-6.01646 8.517436,-11.95856 7.195549,-8.17085 16.174267,-16.37757 29.703079,-27.14918 3.467555,-2.76086 7.782298,-6.29946 9.588317,-7.86356 3.464949,-3.00081 3.68175,-3.19665 16.290737,-14.71571 15.537256,-14.194211 23.301076,-20.236809 33.358356,-25.962879 13.48491,-7.67758 27.0879,-11.432345 41.50559,-11.456581 5.84628,-0.0098 7.70006,0.219232 11.23015,1.387639 l 1.90453,0.63037 v 17.128747 17.128744 l -2.42585,3.03427 c -20.22502,25.29752 -75.200782,56.57388 -116.311662,66.17106 -10.4614,2.44217 -23.250972,3.77416 -29.113335,3.03204 z"
       id="path374" /></g></svg>
