<?xml version="1.0" encoding="UTF-8" standalone="no"?>
<!-- Created with Inkscape (http://www.inkscape.org/) -->

<svg
   width="210.00003mm"
   height="296.99997mm"
   viewBox="0 0 210.00003 296.99996"
   version="1.1"
   id="svg276"
   xml:space="preserve"
   inkscape:export-filename="see-all-bubble_new1.png"
   inkscape:export-xdpi="96"
   inkscape:export-ydpi="96"
   sodipodi:docname="see-all-bubble_new.svg"
   xmlns:inkscape="http://www.inkscape.org/namespaces/inkscape"
   xmlns:sodipodi="http://sodipodi.sourceforge.net/DTD/sodipodi-0.dtd"
   xmlns="http://www.w3.org/2000/svg"
   xmlns:svg="http://www.w3.org/2000/svg"><sodipodi:namedview
     id="namedview278"
     pagecolor="#ffffff"
     bordercolor="#999999"
     borderopacity="1"
     inkscape:showpageshadow="0"
     inkscape:pageopacity="0"
     inkscape:pagecheckerboard="0"
     inkscape:deskcolor="#d1d1d1"
     inkscape:document-units="mm"
     showgrid="false" /><defs
     id="defs273" /><g
     inkscape:label="Ebene 1"
     inkscape:groupmode="layer"
     id="layer1"
     transform="translate(-22.75582,-97.986109)"><path
       style="fill:#000000;stroke-width:0.333701"
       d="m 69.580805,178.04402 c -0.04718,-0.0582 -1.154313,-0.18422 -2.460301,-0.28005 -6.653035,-0.48904 -9.393074,-0.82619 -11.091103,-1.36472 -0.661259,-0.20959 -1.946203,-0.52071 -2.85543,-0.69102 -2.83762,-0.53156 -6.125908,-1.48859 -6.52797,-1.89987 -0.211868,-0.2166 -0.385182,-0.26998 -0.385182,-0.11814 0,0.15184 -0.202886,0.0683 -0.450857,-0.1851 -0.247972,-0.25379 -0.450858,-0.36887 -0.450858,-0.25642 0,0.50562 -6.520845,-2.53352 -7.831019,-3.64973 -0.587485,-0.50055 -1.297586,-0.91003 -1.578002,-0.91003 -0.280419,0 -0.509845,-0.17678 -0.509845,-0.39251 0,-0.21572 -0.12372,-0.29799 -0.274917,-0.1829 -0.151197,0.11508 -0.32025,0.0831 -0.375717,-0.0709 -0.05545,-0.15403 -0.90169,-0.926 -1.880541,-1.71539 -1.956831,-1.57799 -3.493674,-3.51312 -5.038936,-6.3449 -0.555961,-1.01881 -1.330545,-2.38295 -1.721296,-3.0314 -0.443303,-0.73565 -0.853232,-2.19842 -1.090149,-3.89005 -0.468885,-3.3479 0.0366,-7.62722 1.205401,-10.20485 0.418073,-0.92197 0.760128,-1.873 0.760128,-2.11341 0,-0.82369 3.246579,-5.74726 5.381411,-8.16115 0.728032,-0.82317 1.81009,-2.09831 2.404576,-2.83361 0.594483,-0.73535 1.757166,-1.89374 2.583737,-2.57426 0.826575,-0.68048 2.146359,-1.86023 2.93286,-2.62165 0.786498,-0.76139 1.71792,-1.497 2.069827,-1.63466 0.351918,-0.13783 1.240412,-0.81538 1.974454,-1.506 0.734046,-0.69063 1.516778,-1.25572 1.739402,-1.25572 0.222624,0 0.787108,-0.38769 1.254406,-0.86163 0.873972,-0.88635 7.717822,-5.1725 8.478948,-5.31021 0.234268,-0.0438 0.507112,-0.21791 0.606318,-0.38988 0.09919,-0.17197 0.789033,-0.61698 1.532948,-0.98883 0.743915,-0.37194 1.619924,-0.85078 1.946682,-1.06419 1.48428,-0.96941 11.421163,-5.09313 12.272797,-5.09313 0.301436,0 0.804578,-0.16922 1.118106,-0.37606 0.313541,-0.2068 1.555767,-0.6304 2.760529,-0.9413 8.073876,-2.08349 9.327235,-2.36278 9.623413,-2.14437 0.12056,0.0889 0.462952,8.7e-4 0.760849,-0.19564 0.297885,-0.19652 1.416566,-0.44585 2.485929,-0.55408 1.069363,-0.10826 2.465938,-0.27108 3.103504,-0.36188 5.061863,-0.72088 9.901823,-1.01821 17.025383,-1.04593 7.06557,-0.0276 11.58706,0.0989 16.38115,0.45786 2.47972,0.18566 6.06404,0.42677 7.96516,0.53576 1.90111,0.109 4.53863,0.26802 5.86114,0.35335 8.60102,0.5551 13.32315,0.66809 32.16118,0.76952 11.57201,0.0623 21.91919,0.19358 22.99373,0.29169 1.07455,0.0981 3.03578,0.27646 4.35829,0.39627 2.16244,0.1959 6.89745,0.76028 9.34691,1.11411 0.51199,0.0739 1.52642,0.2681 2.25428,0.4314 0.72787,0.16331 1.43349,0.26207 1.56805,0.21949 0.13454,-0.0424 0.81085,0.11167 1.50286,0.34289 0.69201,0.23117 1.93449,0.55513 2.76106,0.71991 0.82658,0.16479 2.04389,0.48417 2.70515,0.70979 0.66125,0.22561 1.55824,0.47829 1.99329,0.56152 0.87353,0.16711 3.84637,1.65259 6.02193,3.00907 1.87613,1.16973 3.40498,2.98734 3.98373,4.73602 0.59558,1.79962 0.5812,2.70917 -0.0657,4.15335 -0.28138,0.62818 -0.77078,1.74693 -1.08759,2.48617 -0.37288,0.87004 -1.22088,1.83122 -2.40457,2.72549 -1.00571,0.75981 -1.87477,1.52076 -1.93125,1.69102 -0.0565,0.17021 -0.93566,1.00603 -1.95372,1.8572 -1.01806,0.85122 -2.40759,2.05578 -3.08784,2.67674 -0.68025,0.62101 -1.61839,1.46252 -2.08475,1.87003 -0.46636,0.40738 -1.21426,1.11608 -1.662,1.57458 -0.44774,0.45844 -0.97655,0.83358 -1.17514,0.83358 -0.19859,0 -0.72009,0.30937 -1.1589,0.68752 -0.4388,0.37807 -2.01514,1.51388 -3.50297,2.5239 -3.71784,2.52389 -3.79103,2.57089 -4.80915,3.08644 -0.49594,0.25117 -1.1046,0.59944 -1.35257,0.77394 -0.24797,0.1746 -0.92426,0.59007 -1.50286,0.92346 -0.5786,0.33344 -2.13406,1.25633 -3.45657,2.05097 -1.32252,0.79464 -2.63329,1.44343 -2.91284,1.44172 -0.27953,-0.002 -0.58157,0.14309 -0.67117,0.32162 -0.0896,0.17853 -0.94293,0.70459 -1.89631,1.16868 -0.95337,0.46405 -2.27443,1.13516 -2.93569,1.49131 -2.37939,1.28153 -6.75795,3.31332 -7.14037,3.31332 -0.21474,0 -0.65725,0.22448 -0.98333,0.49884 -0.32607,0.27436 -1.50587,0.79928 -2.62174,1.16645 -1.11587,0.36713 -2.02886,0.78291 -2.02886,0.9239 0,0.1409 -0.77773,0.47416 -1.72829,0.74042 -0.95055,0.26649 -1.9988,0.68503 -2.32943,0.93059 -0.33061,0.24549 -1.41268,0.71019 -2.40457,1.03247 -0.99189,0.32205 -2.75023,0.94774 -3.90743,1.38991 -1.1572,0.44217 -2.64503,0.9733 -3.30629,1.18032 -0.66126,0.20698 -1.9462,0.67798 -2.85543,1.04669 -4.59496,1.86315 -17.42752,5.69225 -17.43776,5.20326 -0.002,-0.12077 -0.10398,-0.0263 -0.22543,0.20697 -0.12145,0.23454 -0.9537,0.5412 -1.84943,0.68122 -0.89573,0.14003 -1.96243,0.41089 -2.37044,0.60219 -0.40802,0.19123 -1.23061,0.43758 -1.82798,0.54724 -0.59737,0.10983 -1.55953,0.34787 -2.13813,0.52872 -0.5786,0.18116 -1.93117,0.52019 -3.00572,0.75377 -1.07454,0.23367 -2.96814,0.66109 -4.208,0.95007 -1.23986,0.2888 -2.72769,0.61217 -3.30629,0.71823 -0.5786,0.10634 -1.66066,0.34788 -2.40457,0.53735 -0.74392,0.18947 -2.09649,0.44926 -3.00572,0.57734 -0.90923,0.12821 -1.73721,0.29667 -1.83996,0.37456 -0.10274,0.0779 -0.84666,0.22317 -1.65314,0.3225 -0.80649,0.0998 -2.00736,0.29623 -2.66862,0.43713 -0.66126,0.1409 -1.60806,0.28574 -2.104,0.3225 -0.49595,0.035 -1.37512,0.18291 -1.95372,0.32599 -0.5786,0.14265 -1.66066,0.30937 -2.40457,0.36975 -0.74392,0.0608 -1.69072,0.21398 -2.104,0.34088 -0.41329,0.12689 -1.69823,0.3238 -2.85543,0.4384 -1.1572,0.11421 -2.50978,0.27261 -3.00572,0.35138 -3.851498,0.61256 -15.511363,1.37561 -22.036294,1.44207 -4.350183,0.0442 -7.948023,0.035 -7.995199,-0.0263 z"
       id="path292" /></g></svg>
