<?xml version="1.0" encoding="UTF-8" standalone="no"?>
<!-- Created with Inkscape (http://www.inkscape.org/) -->

<svg
   width="210mm"
   height="297mm"
   viewBox="0 0 210 297"
   version="1.1"
   id="svg276"
   xml:space="preserve"
   xmlns:inkscape="http://www.inkscape.org/namespaces/inkscape"
   xmlns:sodipodi="http://sodipodi.sourceforge.net/DTD/sodipodi-0.dtd"
   xmlns="http://www.w3.org/2000/svg"
   xmlns:svg="http://www.w3.org/2000/svg"><sodipodi:namedview
     id="namedview278"
     pagecolor="#ffffff"
     bordercolor="#999999"
     borderopacity="1"
     inkscape:showpageshadow="0"
     inkscape:pageopacity="0"
     inkscape:pagecheckerboard="0"
     inkscape:deskcolor="#d1d1d1"
     inkscape:document-units="mm"
     showgrid="false" /><defs
     id="defs273" /><g
     inkscape:label="Ebene 1"
     inkscape:groupmode="layer"
     id="layer1"><path
       style="fill:#000000;stroke-width:0.0846667"
       d="m 35.346018,115.63313 c -0.01329,-0.0133 -0.325153,-0.0421 -0.693031,-0.064 -1.874063,-0.11176 -2.645892,-0.18881 -3.124202,-0.31188 -0.186267,-0.0479 -0.548217,-0.119 -0.804333,-0.15792 -0.799316,-0.12148 -1.725579,-0.34019 -1.838834,-0.43418 -0.05968,-0.0495 -0.1085,-0.0617 -0.1085,-0.027 0,0.0347 -0.05715,0.0156 -0.127,-0.0423 -0.06985,-0.058 -0.127,-0.0843 -0.127,-0.0586 0,0.11555 -1.836827,-0.57899 -2.205884,-0.83408 -0.165486,-0.11439 -0.365511,-0.20797 -0.4445,-0.20797 -0.07899,0 -0.143616,-0.0404 -0.143616,-0.0897 0,-0.0493 -0.03485,-0.0681 -0.07744,-0.0418 -0.04259,0.0263 -0.09021,0.019 -0.105834,-0.0162 -0.01562,-0.0352 -0.253993,-0.21162 -0.529721,-0.39202 -0.551211,-0.36062 -0.984117,-0.80286 -1.419395,-1.45001 -0.156606,-0.23283 -0.374795,-0.54458 -0.484864,-0.69277 -0.124872,-0.16812 -0.240343,-0.50241 -0.307079,-0.889 -0.132078,-0.7651 0.01031,-1.74306 0.339544,-2.33213 0.117765,-0.2107 0.214117,-0.42804 0.214117,-0.48298 0,-0.18824 0.914514,-1.31343 1.515865,-1.86508 0.205076,-0.18812 0.509876,-0.47953 0.677334,-0.64757 0.167457,-0.16805 0.494968,-0.43278 0.727801,-0.5883 0.232834,-0.15551 0.604598,-0.42512 0.826144,-0.59913 0.221545,-0.174 0.483913,-0.34211 0.58304,-0.37357 0.09913,-0.0315 0.349406,-0.18634 0.556175,-0.34417 0.20677,-0.15783 0.427254,-0.28697 0.489964,-0.28697 0.06271,0 0.221717,-0.0886 0.353348,-0.19691 0.246185,-0.20256 2.173998,-1.18208 2.388396,-1.21355 0.06599,-0.01 0.142846,-0.0498 0.170791,-0.0891 0.02794,-0.0393 0.222259,-0.141 0.431809,-0.22598 0.20955,-0.085 0.456309,-0.19443 0.548352,-0.2432 0.4181,-0.22154 3.217175,-1.163942 3.457068,-1.163942 0.08491,0 0.226638,-0.03867 0.314954,-0.08594 0.08832,-0.04726 0.438237,-0.144068 0.777601,-0.215117 2.274293,-0.476144 2.627346,-0.539969 2.710775,-0.490057 0.03396,0.02032 0.130407,1.99e-4 0.21432,-0.04471 0.08391,-0.04491 0.399026,-0.10189 0.70025,-0.126625 0.301224,-0.02474 0.694619,-0.06195 0.874212,-0.0827 1.425853,-0.164744 2.7892,-0.232694 4.795802,-0.239027 1.990269,-0.0063 3.263907,0.0226 4.614333,0.104634 0.6985,0.04243 1.70815,0.09753 2.243667,0.122439 0.535517,0.02491 1.278467,0.06125 1.651,0.08075 2.42278,0.12686 3.752937,0.152681 9.059334,0.17586 3.259666,0.01424 6.174316,0.04424 6.477,0.06666 0.302683,0.02243 0.855133,0.06318 1.227666,0.09056 0.609127,0.04477 1.94291,0.173749 2.632887,0.25461 0.144222,0.0169 0.429972,0.06127 0.635,0.09859 0.205029,0.03732 0.403792,0.05989 0.441695,0.05016 0.0379,-0.0097 0.228404,0.02552 0.423334,0.07836 0.19493,0.05283 0.544918,0.126866 0.777751,0.164522 0.232834,0.03766 0.575734,0.110649 0.762,0.162209 0.186267,0.05156 0.438934,0.109306 0.561483,0.128326 0.246059,0.03819 1.083464,0.377668 1.69629,0.687668 0.528476,0.26732 0.959133,0.6827 1.122158,1.08233 0.167767,0.41127 0.163716,0.61913 -0.0185,0.94917 -0.07926,0.14356 -0.217116,0.39923 -0.306356,0.56817 -0.105036,0.19883 -0.343904,0.41849 -0.677334,0.62286 -0.283293,0.17364 -0.528095,0.34754 -0.544004,0.38645 -0.01591,0.0389 -0.263561,0.22991 -0.550334,0.42443 -0.286773,0.19453 -0.678184,0.46981 -0.869801,0.61172 -0.191617,0.14192 -0.455877,0.33423 -0.587244,0.42736 -0.131367,0.0931 -0.342039,0.25506 -0.46816,0.35984 -0.126122,0.10477 -0.27508,0.1905 -0.33102,0.1905 -0.05594,0 -0.202839,0.0707 -0.326444,0.15712 -0.123605,0.0864 -0.567637,0.34597 -0.986737,0.57679 -1.047262,0.57679 -1.067878,0.58753 -1.354666,0.70535 -0.139701,0.0574 -0.311151,0.13699 -0.381001,0.17687 -0.06985,0.0399 -0.26035,0.13485 -0.423333,0.21104 -0.162983,0.0762 -0.601133,0.28711 -0.973667,0.46871 -0.372533,0.1816 -0.741759,0.32987 -0.820503,0.32948 -0.07874,-4.2e-4 -0.163819,0.0327 -0.189058,0.0735 -0.02524,0.0408 -0.265611,0.16102 -0.534163,0.26708 -0.268551,0.10605 -0.640676,0.25942 -0.826942,0.34081 -0.670239,0.29287 -1.903615,0.7572 -2.011338,0.7572 -0.06049,0 -0.185137,0.0513 -0.27699,0.114 -0.09185,0.0627 -0.424181,0.18266 -0.738506,0.26657 -0.314325,0.0839 -0.5715,0.17892 -0.5715,0.21114 0,0.0322 -0.219075,0.10836 -0.486833,0.16921 -0.267758,0.0609 -0.563033,0.15655 -0.656167,0.21267 -0.09313,0.0561 -0.397933,0.1623 -0.677333,0.23595 -0.2794,0.0736 -0.7747,0.21659 -1.100667,0.31764 -0.325966,0.10105 -0.745066,0.22243 -0.931333,0.26974 -0.186267,0.0473 -0.548217,0.15494 -0.804333,0.2392 -1.294333,0.42579 -4.909079,1.30086 -4.911963,1.18911 -6.78e-4,-0.0276 -0.02929,-0.006 -0.0635,0.0473 -0.03421,0.0536 -0.268643,0.12368 -0.520957,0.15568 -0.252313,0.032 -0.552788,0.0939 -0.667719,0.13762 -0.114933,0.0437 -0.346644,0.1 -0.514915,0.12506 -0.168271,0.0251 -0.439297,0.0795 -0.60228,0.12083 -0.162983,0.0414 -0.543983,0.11888 -0.846667,0.17226 -0.302683,0.0534 -0.836083,0.15108 -1.185333,0.21712 -0.34925,0.066 -0.76835,0.1399 -0.931333,0.16414 -0.162984,0.0243 -0.467784,0.0795 -0.677334,0.1228 -0.20955,0.0433 -0.59055,0.10267 -0.846666,0.13194 -0.256117,0.0293 -0.489347,0.0678 -0.51829,0.0856 -0.02894,0.0178 -0.238492,0.051 -0.465667,0.0737 -0.227174,0.0228 -0.565443,0.0677 -0.75171,0.0999 -0.186267,0.0322 -0.452967,0.0653 -0.592667,0.0737 -0.1397,0.008 -0.38735,0.0418 -0.550333,0.0745 -0.162983,0.0326 -0.467783,0.0707 -0.677333,0.0845 -0.20955,0.0139 -0.47625,0.0489 -0.592667,0.0779 -0.116417,0.029 -0.478367,0.074 -0.804333,0.10019 -0.325967,0.0261 -0.706967,0.0623 -0.846667,0.0803 -1.084911,0.13999 -4.369325,0.31437 -6.207303,0.32956 -1.225383,0.0101 -2.238842,0.008 -2.252131,-0.006 z"
       id="path292" /></g></svg>
